<svg version="1.1" xmlns="http://www.w3.org/2000/svg" width="512px" height="512px" transform="rotate(0) scale(1, 1)">
<path d="M0 0 C1.16337891 -0.020625 2.32675781 -0.04125 3.52539062 -0.0625 C11.06629449 -0.09683536 16.85697767 0.00949179 22.5 5.5 C26.0195955 11.23563712 26.62580764 17.61889356 27.3125 24.1875 C27.39886719 24.96673828 27.48523438 25.74597656 27.57421875 26.54882812 C27.78401323 28.4486337 27.98651994 30.34924174 28.1875 32.25 C28.79158691 32.33193604 29.39567383 32.41387207 30.01806641 32.49829102 C38.68332694 33.75332031 46.32033917 37.5994812 54.1875 41.25 C54.65647705 40.89172119 55.1254541 40.53344238 55.60864258 40.16430664 C57.73593776 38.54284609 59.8678902 36.92762359 62 35.3125 C62.73798828 34.74853516 63.47597656 34.18457031 64.23632812 33.60351562 C64.94853516 33.06533203 65.66074219 32.52714844 66.39453125 31.97265625 C67.0491333 31.47515869 67.70373535 30.97766113 68.37817383 30.46508789 C71.32680118 28.48488032 74.03078709 28.05134291 77.5 27.9375 C78.60794922 27.88142578 78.60794922 27.88142578 79.73828125 27.82421875 C86.83247313 29.05749932 92.09632498 35.82556522 96.9375 40.6875 C98.08798828 41.81381836 98.08798828 41.81381836 99.26171875 42.96289062 C99.99519531 43.69572266 100.72867187 44.42855469 101.484375 45.18359375 C102.14791992 45.84415771 102.81146484 46.50472168 103.49511719 47.18530273 C106.58237209 50.95173591 107.81885394 55.06258121 107.69921875 59.94921875 C106.42445215 65.68080294 102.21272734 71.23617169 98.10546875 75.3203125 C95.8671847 77.72352275 94.84375857 79.00060858 94.1875 82.25 C95.42416849 87.12289545 97.80734224 91.51663769 100.12890625 95.9453125 C102.11276073 99.78265143 102.86287508 102.95583872 103.1875 107.25 C104.31027344 107.35957031 105.43304688 107.46914063 106.58984375 107.58203125 C127.28182429 109.71684479 127.28182429 109.71684479 132.1875 115.1875 C136.14334836 121.2448928 135.37097699 127.5262642 135.375 134.5625 C135.38724609 135.67818359 135.39949219 136.79386719 135.41210938 137.94335938 C135.43692134 151.89595441 135.43692134 151.89595441 130.5 157.0625 C124.5835565 160.96958533 118.14641477 161.65403804 111.25 162.375 C110.47076172 162.46136719 109.69152344 162.54773438 108.88867188 162.63671875 C106.9888663 162.84651323 105.08825826 163.04901994 103.1875 163.25 C103.001875 164.384375 102.81625 165.51875 102.625 166.6875 C101.94746907 170.20735581 100.85532236 172.96120523 99.07421875 176.03515625 C95.5569188 182.29631951 95.5569188 182.29631951 94.1875 189.25 C96.28494805 195.25544062 100.62469859 200.09316914 104.86132812 204.73217773 C107.44935391 207.69420946 107.45924847 210.28497752 107.41015625 214.15625 C106.89743713 218.97760878 104.03666937 222.51495444 101.1875 226.25 C103.10092588 227.74055327 105.01463248 229.23074371 106.92871094 230.72045898 C108.56934796 231.99776532 110.2093145 233.27593329 111.84863281 234.55493164 C115.56691196 237.45223049 119.28845898 240.34092676 123.06640625 243.16015625 C138.68529539 254.83694682 138.68529539 254.83694682 140.7265625 264.91015625 C141.24518216 268.66795122 141.29765177 272.34218253 141.25 276.125 C141.24548828 276.81335938 141.24097656 277.50171875 141.23632812 278.2109375 C141.22466336 279.89066335 141.20673271 281.57034375 141.1875 283.25 C142.31285156 283.41242188 142.31285156 283.41242188 143.4609375 283.578125 C148.58787143 284.84149554 152.06043449 288.67210828 155.0625 292.875 C157.91211033 298.89084403 158.12203474 305.15696262 155.9375 311.4375 C153.16116802 318.00558169 149.43641468 321.12554266 143.1875 324.25 C137.71464751 326.36852355 131.9097346 325.79753861 126.5625 323.6875 C121.17543461 321.06374794 117.63771335 317.27044435 115.0546875 311.890625 C113.27316378 306.46580502 113.04467486 300.24194565 115.09765625 294.8671875 C117.72810276 290.4182651 120.94346544 287.16777376 125.1875 284.25 C126.84246303 283.86271941 128.50929766 283.51930612 130.1875 283.25 C130.1271826 280.37285987 130.04004404 277.50069146 129.9375 274.625 C129.92332031 273.81675781 129.90914063 273.00851562 129.89453125 272.17578125 C129.67345832 266.73738727 128.88762892 263.48038362 125.1875 259.25 C122.48750255 256.84213103 119.64777892 254.66352605 116.75 252.5 C115.13394262 251.27496641 113.51805851 250.04970419 111.90234375 248.82421875 C110.70714111 247.92388916 110.70714111 247.92388916 109.48779297 247.00537109 C107.3803723 245.39718232 105.31102341 243.75380486 103.25390625 242.08203125 C102.66730225 241.61055664 102.08069824 241.13908203 101.47631836 240.65332031 C99.90927256 239.39048604 98.34893755 238.11933733 96.7890625 236.84765625 C94.38938345 235.04058878 94.38938345 235.04058878 92.03125 235.33984375 C90.09764669 236.29435556 88.6633966 237.30835489 87.0625 238.75 C83.00765524 242.27595196 80.76337009 242.61513562 75.5390625 242.515625 C70.46580116 241.94256558 67.16331377 239.2728032 63.75390625 235.69921875 C60.58256601 232.65983441 58.3354206 230.76396889 54.1875 229.25 C48.1041732 230.20745259 42.73542894 233.43716159 37.35302734 236.27246094 C34.27299153 237.66281758 31.54265844 238.00810607 28.1875 238.25 C28.11756836 238.88502441 28.04763672 239.52004883 27.97558594 240.17431641 C27.6463317 243.07672952 27.29215721 245.97558589 26.9375 248.875 C26.82792969 249.87402344 26.71835937 250.87304688 26.60546875 251.90234375 C25.72870928 258.87027425 24.50972817 263.23923072 19.1875 268.0625 C14.67359185 270.74263296 10.31129695 270.33539662 5.1875 270.25 C5.1875 274.54 5.1875 278.83 5.1875 283.25 C6.8375 283.58 8.4875 283.91 10.1875 284.25 C15.85091785 287.37065881 19.13416831 291.09000494 21.1875 297.25 C21.87652405 304.44537976 22.13712875 310.64472105 17.67578125 316.6015625 C12.61521044 322.20670917 7.97288619 324.94472692 0.3125 325.5625 C-6.27446772 325.37358123 -12.14536442 322.91713558 -16.8125 318.25 C-20.95111289 312.61688802 -22.19666428 307.24178991 -21.8125 300.25 C-20.41893043 293.86891829 -17.78175791 289.46908288 -12.69140625 285.40625 C-10.8125 284.25 -10.8125 284.25 -5.8125 282.25 C-5.4825 278.29 -5.1525 274.33 -4.8125 270.25 C-6.5759375 270.3428125 -6.5759375 270.3428125 -8.375 270.4375 C-13.92554638 270.41785205 -18.09757095 268.91857962 -22.125 265 C-25.6445955 259.26436288 -26.25080764 252.88110644 -26.9375 246.3125 C-27.02386719 245.53326172 -27.11023438 244.75402344 -27.19921875 243.95117188 C-27.40901323 242.0513663 -27.61151994 240.15075826 -27.8125 238.25 C-28.79734375 238.1571875 -29.7821875 238.064375 -30.796875 237.96875 C-35.2452073 237.332634 -39.01299538 235.63120644 -43.0625 233.75 C-48.36041821 231.31065676 -48.36041821 231.31065676 -53.8125 229.25 C-55.55239506 230.09797743 -55.55239506 230.09797743 -57.24609375 231.48828125 C-57.89513672 231.97876953 -58.54417969 232.46925781 -59.21289062 232.97460938 C-59.88513672 233.49861328 -60.55738281 234.02261719 -61.25 234.5625 C-62.57997988 235.58210849 -63.91195327 236.59912292 -65.24609375 237.61328125 C-65.83447021 238.07001221 -66.42284668 238.52674316 -67.02905273 238.99731445 C-71.85974402 242.39037085 -75.9944534 243.08114951 -81.8125 242.25 C-85.0625 240.5 -85.0625 240.5 -87.8125 238.25 C-89.4782159 236.91547908 -91.14474189 235.58196789 -92.8125 234.25 C-93.50472656 234.79188965 -93.50472656 234.79188965 -94.2109375 235.34472656 C-95.60729828 236.43684075 -97.00442672 237.52797374 -98.40209961 238.6184082 C-100.02191188 239.88285601 -101.63988785 241.14965942 -103.25610352 242.41870117 C-107.26510725 245.55231498 -111.29138405 248.6231281 -115.46484375 251.53515625 C-116.54862305 252.30327637 -116.54862305 252.30327637 -117.65429688 253.08691406 C-119.01357017 254.04397927 -120.38550303 254.98340563 -121.77148438 255.90136719 C-126.82498778 259.49339531 -128.6469639 263.19223623 -129.8125 269.25 C-130.16880618 272.90580667 -130.16880618 272.90580667 -130 276.3125 C-129.97292969 277.43785156 -129.94585937 278.56320312 -129.91796875 279.72265625 C-129.88316406 280.55667969 -129.84835938 281.39070313 -129.8125 282.25 C-128.61625 282.765625 -127.42 283.28125 -126.1875 283.8125 C-120.56760156 286.63241358 -117.0915421 290.51750097 -114.4375 296.1875 C-112.82164994 304.10516531 -113.8919572 310.18815271 -117.8125 317.25 C-122.30073287 322.82709409 -128.89305539 324.92561727 -135.75 325.6875 C-141.37469678 325.42228836 -146.45647768 323.36991774 -150.64453125 319.6015625 C-155.80270265 313.85352721 -157.29652369 308.70888957 -157.12109375 301.03125 C-156.35289797 294.10776401 -152.86864815 289.78736977 -147.69140625 285.37890625 C-145.43305124 284.02201519 -143.40205625 283.63643464 -140.8125 283.25 C-140.86470703 281.45755859 -140.86470703 281.45755859 -140.91796875 279.62890625 C-141.3419525 259.14855402 -141.3419525 259.14855402 -134.5390625 251.80859375 C-130.87086006 248.49725263 -126.85187476 245.64710168 -122.85693359 242.74707031 C-118.56158524 239.60173044 -114.31784447 236.38661993 -110.0625 233.1875 C-108.29704451 231.86305526 -106.53143253 230.53881909 -104.765625 229.21484375 C-103.62335449 228.35814087 -103.62335449 228.35814087 -102.45800781 227.48413086 C-101.64348145 226.87323608 -101.64348145 226.87323608 -100.8125 226.25 C-101.23837402 225.65396973 -101.66424805 225.05793945 -102.10302734 224.44384766 C-102.6542627 223.65026855 -103.20549805 222.85668945 -103.7734375 222.0390625 C-104.32306152 221.25740723 -104.87268555 220.47575195 -105.43896484 219.67041016 C-107.61610055 215.8339147 -107.70527416 212.50845374 -106.8125 208.25 C-105.07576925 204.24796827 -103.42948229 201.83863701 -100.26171875 198.81640625 C-97.22233441 195.64506601 -95.32646889 193.3979206 -93.8125 189.25 C-94.76995259 183.1666732 -97.99966159 177.79792894 -100.83496094 172.41552734 C-102.22531758 169.33549153 -102.57060607 166.60515844 -102.8125 163.25 C-103.44752441 163.18006836 -104.08254883 163.11013672 -104.73681641 163.03808594 C-107.63922952 162.7088317 -110.53808589 162.35465721 -113.4375 162 C-114.43652344 161.89042969 -115.43554688 161.78085937 -116.46484375 161.66796875 C-123.43277425 160.79120928 -127.80173072 159.57222817 -132.625 154.25 C-135.96099862 148.63147601 -135.03481621 141.74594429 -135.0625 135.4375 C-135.0934375 133.69243164 -135.0934375 133.69243164 -135.125 131.91210938 C-135.15933536 124.37120551 -135.05300821 118.58052233 -129.5625 112.9375 C-123.82686288 109.4179045 -117.44360644 108.81169236 -110.875 108.125 C-109.70614258 107.99544922 -109.70614258 107.99544922 -108.51367188 107.86328125 C-106.6138663 107.65348677 -104.71325826 107.45098006 -102.8125 107.25 C-102.7196875 106.26515625 -102.626875 105.2803125 -102.53125 104.265625 C-101.895134 99.8172927 -100.19370644 96.04950462 -98.3125 92 C-95.87315676 86.70208179 -95.87315676 86.70208179 -93.8125 81.25 C-94.66047743 79.51010494 -94.66047743 79.51010494 -96.05078125 77.81640625 C-96.54126953 77.16736328 -97.03175781 76.51832031 -97.53710938 75.84960938 C-98.06111328 75.17736328 -98.58511719 74.50511719 -99.125 73.8125 C-100.14460849 72.48252012 -101.16162292 71.15054673 -102.17578125 69.81640625 C-102.63251221 69.22802979 -103.08924316 68.63965332 -103.55981445 68.03344727 C-105.90919525 64.68863597 -107.11549069 61.97953068 -107.1875 57.875 C-107.23003906 56.78058594 -107.23003906 56.78058594 -107.2734375 55.6640625 C-105.91587935 48.55413928 -99.22273358 43.36021422 -94.3125 38.5 C-93.17361328 37.34951172 -93.17361328 37.34951172 -92.01171875 36.17578125 C-91.27566406 35.44230469 -90.53960937 34.70882812 -89.78125 33.953125 C-89.11544922 33.28958008 -88.44964844 32.62603516 -87.76367188 31.94238281 C-83.88377074 28.57708318 -80.42595057 27.6303779 -75.37109375 27.73828125 C-69.37750423 28.93699915 -64.04539404 33.24661946 -59.5703125 37.26171875 C-57.28236379 39.19348497 -55.70053766 40.42089828 -52.8125 41.25 C-48.07620404 39.96518482 -44.06679188 37.65109656 -39.8125 35.25 C-35.70585382 33.43709765 -32.37266278 32.25 -27.8125 32.25 C-27.70292969 31.12722656 -27.59335938 30.00445312 -27.48046875 28.84765625 C-25.34565521 8.15567571 -25.34565521 8.15567571 -19.875 3.25 C-13.71192948 -0.77486238 -7.15936117 0.03141793 0 0 Z M-14.8125 13.25 C-15.42977155 15.71386274 -15.42977155 15.71386274 -15.8125 18.58984375 C-15.9775 19.65267578 -16.1425 20.71550781 -16.3125 21.81054688 C-16.4775 22.92494141 -16.6425 24.03933594 -16.8125 25.1875 C-17.13902073 27.38513758 -17.47206721 29.58181824 -17.8125 31.77734375 C-17.956875 32.75437256 -18.10125 33.73140137 -18.25 34.73803711 C-18.8125 37.25 -18.8125 37.25 -20.8125 40.25 C-23.60388214 41.29897202 -26.33691952 42.21079512 -29.1875 43.0625 C-35.98509942 45.18455203 -42.03484621 47.61361845 -48.234375 51.1484375 C-51.6064664 52.58924019 -53.15942452 52.93085995 -56.8125 52.25 C-61.12671249 49.56269593 -64.98319537 46.26287261 -68.91210938 43.05078125 C-70.13317383 42.09365234 -70.13317383 42.09365234 -71.37890625 41.1171875 C-72.11052979 40.52019043 -72.84215332 39.92319336 -73.59594727 39.30810547 C-75.80473195 37.96886013 -75.80473195 37.96886013 -78.33813477 38.85083008 C-82.58726214 41.25356801 -85.7514111 44.63556587 -89.1875 48.0625 C-89.93644531 48.77470703 -90.68539062 49.48691406 -91.45703125 50.22070312 C-92.15957031 50.91744141 -92.86210937 51.61417969 -93.5859375 52.33203125 C-94.22966309 52.96343018 -94.87338867 53.5948291 -95.53662109 54.24536133 C-97.05417629 56.20557135 -97.05417629 56.20557135 -96.69799805 58.74511719 C-95.75265392 61.41929163 -94.6804477 63.07297722 -92.87109375 65.24609375 C-91.99614258 66.33180664 -91.99614258 66.33180664 -91.10351562 67.43945312 C-89.86817008 68.93774894 -88.62857904 70.43255445 -87.38476562 71.92382812 C-83.01174133 77.37194809 -83.01174133 77.37194809 -82.140625 81.2109375 C-83.1214475 85.64744859 -85.05703987 89.41220643 -87.125 93.4375 C-90.21231341 99.64253488 -92.83327416 105.46679552 -94.1796875 112.31640625 C-94.8125 114.25 -94.8125 114.25 -97.8125 116.25 C-100.32446289 116.8125 -100.32446289 116.8125 -103.28515625 117.25 C-104.34927734 117.415 -105.41339844 117.58 -106.50976562 117.75 C-108.75707716 118.08390119 -111.00447342 118.41723262 -113.25195312 118.75 C-114.31478516 118.915 -115.37761719 119.08 -116.47265625 119.25 C-117.93650757 119.4665625 -117.93650757 119.4665625 -119.42993164 119.6875 C-121.98278413 120.06980842 -121.98278413 120.06980842 -123.8125 122.25 C-124.1240683 124.93526618 -124.1240683 124.93526618 -124.078125 128.0625 C-124.08070313 129.22007812 -124.08328125 130.37765625 -124.0859375 131.5703125 C-124.07820313 132.78460938 -124.07046875 133.99890625 -124.0625 135.25 C-124.07023437 136.46429688 -124.07796875 137.67859375 -124.0859375 138.9296875 C-124.08335937 140.08726562 -124.08078125 141.24484375 -124.078125 142.4375 C-124.07586914 143.50355469 -124.07361328 144.56960938 -124.07128906 145.66796875 C-124.07130798 148.41323461 -124.07130798 148.41323461 -121.8125 150.25 C-119.34863726 150.86727155 -119.34863726 150.86727155 -116.47265625 151.25 C-115.40982422 151.415 -114.34699219 151.58 -113.25195312 151.75 C-112.13755859 151.915 -111.02316406 152.08 -109.875 152.25 C-107.67736242 152.57652073 -105.48068176 152.90956721 -103.28515625 153.25 C-102.30812744 153.394375 -101.33109863 153.53875 -100.32446289 153.6875 C-97.8125 154.25 -97.8125 154.25 -94.8125 156.25 C-93.94940654 158.67375561 -93.2283812 161.02293349 -92.5625 163.5 C-90.53610267 170.58556373 -87.74858117 176.7357562 -84.16796875 183.1640625 C-82.60828731 186.71492227 -82.11663528 188.42514356 -82.8125 192.25 C-84.50678365 195.19618973 -86.55857329 197.79461043 -88.6875 200.4375 C-89.78936154 201.8474226 -90.89093545 203.25757004 -91.9921875 204.66796875 C-92.48444824 205.28438232 -92.97670898 205.9007959 -93.48388672 206.53588867 C-96.05118444 209.5124805 -96.05118444 209.5124805 -96.65356445 213.1965332 C-95.61525587 215.73157342 -94.28666855 217.16405225 -92.35546875 219.10546875 C-91.30456055 220.16217773 -91.30456055 220.16217773 -90.23242188 221.24023438 C-89.49572266 221.96533203 -88.75902344 222.69042969 -88 223.4375 C-86.91235352 224.54254883 -86.91235352 224.54254883 -85.80273438 225.66992188 C-85.09826172 226.37052734 -84.39378906 227.07113281 -83.66796875 227.79296875 C-83.02496826 228.43258545 -82.38196777 229.07220215 -81.71948242 229.73120117 C-79.62468951 231.39957996 -78.49125865 232.11984744 -75.8125 232.25 C-73.60534611 231.09730586 -73.60534611 231.09730586 -71.4765625 229.28515625 C-70.65929687 228.65029297 -69.84203125 228.01542969 -69 227.36132812 C-67.29833716 226.00077605 -65.59780613 224.63880715 -63.8984375 223.27539062 C-57.68644509 218.45523614 -57.68644509 218.45523614 -53.78515625 217.5390625 C-49.40018088 218.58776883 -45.62154824 220.50930754 -41.625 222.5625 C-35.41996512 225.64981341 -29.59570448 228.27077416 -22.74609375 229.6171875 C-20.8125 230.25 -20.8125 230.25 -18.8125 233.25 C-18.25 235.65429688 -18.25 235.65429688 -17.8125 238.46875 C-17.6475 239.48324219 -17.4825 240.49773437 -17.3125 241.54296875 C-16.97916667 243.68098958 -16.64583333 245.81901042 -16.3125 247.95703125 C-16.1475 248.97152344 -15.9825 249.98601562 -15.8125 251.03125 C-15.5959375 252.4244043 -15.5959375 252.4244043 -15.375 253.84570312 C-14.90388593 256.49270572 -14.90388593 256.49270572 -12.8125 259.25 C-10.1332105 259.71684815 -10.1332105 259.71684815 -7 259.6484375 C-5.26363281 259.65423828 -5.26363281 259.65423828 -3.4921875 259.66015625 C-2.27789062 259.64855469 -1.06359375 259.63695312 0.1875 259.625 C2.00894531 259.64240234 2.00894531 259.64240234 3.8671875 259.66015625 C5.60355469 259.65435547 5.60355469 259.65435547 7.375 259.6484375 C8.97408203 259.64336182 8.97408203 259.64336182 10.60546875 259.63818359 C11.45753906 259.51008301 12.30960938 259.38198242 13.1875 259.25 C15.28680941 256.10103589 15.64445633 254.45228268 16.1875 250.77734375 C16.3525 249.71322266 16.5175 248.64910156 16.6875 247.55273438 C17.02140119 245.30542284 17.35473262 243.05802658 17.6875 240.81054688 C17.8525 239.74771484 18.0175 238.68488281 18.1875 237.58984375 C18.331875 236.61394287 18.47625 235.63804199 18.625 234.63256836 C19.1875 232.25 19.1875 232.25 21.1875 230.25 C23.99197576 229.27910745 26.7902529 228.37253796 29.625 227.5 C36.15701439 225.43289864 41.93995924 223.09666815 47.73046875 219.3515625 C51.30788063 217.74769899 53.27680372 217.62300245 57.1875 218.25 C61.56512173 220.87515403 65.40107405 224.21483409 69.3359375 227.44921875 C70.14546875 228.08730469 70.955 228.72539062 71.7890625 229.3828125 C72.51432129 229.97980957 73.23958008 230.57680664 73.98681641 231.19189453 C76.18436504 232.53376139 76.18436504 232.53376139 78.72900391 231.63989258 C81.18559814 230.2510752 82.93634325 228.87437102 84.921875 226.87890625 C85.57800781 226.22212891 86.23414063 225.56535156 86.91015625 224.88867188 C87.57917969 224.20353516 88.24820313 223.51839844 88.9375 222.8125 C89.62199219 222.13123047 90.30648437 221.44996094 91.01171875 220.74804688 C94.86277826 216.99727914 94.86277826 216.99727914 97.1875 212.25 C96.00030993 209.74702882 96.00030993 209.74702882 94.1875 207.125 C93.54683594 206.14789063 92.90617188 205.17078125 92.24609375 204.1640625 C89.84744823 200.76863639 87.24537602 197.61132092 84.47265625 194.515625 C82.59630393 191.20776984 82.75617704 189.00923685 83.1875 185.25 C84.19799696 182.56760274 85.53959208 180.12311322 86.9375 177.625 C92.92228469 166.48966543 92.92228469 166.48966543 95.1875 154.25 C96.34536011 154.09180786 96.34536011 154.09180786 97.52661133 153.93041992 C101.01968567 153.44576013 104.50972038 152.94187567 108 152.4375 C109.82241211 152.1890332 109.82241211 152.1890332 111.68164062 151.93554688 C113.42670898 151.6793457 113.42670898 151.6793457 115.20703125 151.41796875 C116.28057861 151.26610107 117.35412598 151.1142334 118.46020508 150.95776367 C121.40727189 150.19296672 122.54464136 149.79911895 124.1875 147.25 C124.63394066 144.57518404 124.63394066 144.57518404 124.55078125 141.55859375 C124.55013672 140.44935547 124.54949219 139.34011719 124.54882812 138.19726562 C124.53271484 137.03904297 124.51660156 135.88082031 124.5 134.6875 C124.50322266 133.52541016 124.50644531 132.36332031 124.50976562 131.16601562 C124.90925456 125.13387095 124.90925456 125.13387095 122.1875 120.25 C119.72363726 119.63272845 119.72363726 119.63272845 116.84765625 119.25 C115.78482422 119.085 114.72199219 118.92 113.62695312 118.75 C112.51255859 118.585 111.39816406 118.42 110.25 118.25 C108.05236242 117.92347927 105.85568176 117.59043279 103.66015625 117.25 C102.68312744 117.105625 101.70609863 116.96125 100.69946289 116.8125 C98.1875 116.25 98.1875 116.25 95.1875 114.25 C94.1407462 111.43813194 93.22813678 108.68206291 92.375 105.8125 C90.33888678 99.26358646 88.03926702 93.50542439 84.2890625 87.70703125 C82.70145804 84.16588513 82.60758595 82.11742682 83.1875 78.25 C85.02388524 74.92210622 87.28565669 71.98848046 89.625 69 C90.83507173 67.4137732 92.04223915 65.82532539 93.24609375 64.234375 C94.05518188 63.19361816 94.05518188 63.19361816 94.88061523 62.13183594 C96.36738051 60.17936455 96.36738051 60.17936455 97.1875 57.25 C95.29410088 54.25447304 92.63037232 51.80466478 90.1875 49.25 C89.27311492 48.24899249 88.35906911 47.24767499 87.4453125 46.24609375 C86.48597737 45.2250546 85.52504502 44.20551372 84.5625 43.1875 C83.66273438 42.22714844 82.76296875 41.26679688 81.8359375 40.27734375 C79.42139588 38.02991486 79.42139588 38.02991486 76.76171875 38.13671875 C73.30490347 39.63169956 70.52497611 41.76897798 67.625 44.125 C66.49874139 45.01828398 65.37244032 45.91151443 64.24609375 46.8046875 C62.51787504 48.1863796 60.80653881 49.59205764 59.16015625 51.0703125 C56.26623588 52.80093419 54.52695324 52.68296633 51.1875 52.25 C48.39195593 51.2041428 45.77561898 49.8667207 43.125 48.5 C36.71107737 45.31715118 30.55862368 42.89508194 23.62890625 41.0390625 C21.1875 40.25 21.1875 40.25 19.1875 38.25 C18.625 35.86743164 18.625 35.86743164 18.1875 32.91015625 C18.0225 31.84732422 17.8575 30.78449219 17.6875 29.68945312 C17.5225 28.57505859 17.3575 27.46066406 17.1875 26.3125 C16.86097927 24.11486242 16.52793279 21.91818176 16.1875 19.72265625 C15.9709375 18.25711304 15.9709375 18.25711304 15.75 16.76196289 C15.29417006 14.02057073 15.29417006 14.02057073 13.1875 11.25 C10.50735437 10.79962828 10.50735437 10.79962828 7.375 10.88671875 C6.21742188 10.88736328 5.05984375 10.88800781 3.8671875 10.88867188 C2.04574219 10.9128418 2.04574219 10.9128418 0.1875 10.9375 C-1.02679688 10.93427734 -2.24109375 10.93105469 -3.4921875 10.92773438 C-9.73485217 10.49777432 -9.73485217 10.49777432 -14.8125 13.25 Z " fill="#ffdb6e" transform="translate(255.8125,175.75)"/>
<path d="M0 0 C0.76054687 0.59554687 1.52109375 1.19109375 2.3046875 1.8046875 C3.00335938 2.33835937 3.70203125 2.87203125 4.421875 3.421875 C17.79912826 14.30065295 25.85460436 30.92888123 28.3046875 47.8046875 C30.27913017 67.01525199 25.47638755 85.69371008 13.44580078 100.99902344 C1.52316832 115.40327087 -15.11919941 124.57634272 -33.6953125 126.8046875 C-52.97859864 127.86577838 -70.28702939 123.87015665 -85.6953125 111.8046875 C-86.39398438 111.27101563 -87.09265625 110.73734375 -87.8125 110.1875 C-101.18975326 99.30872205 -109.24522936 82.68049377 -111.6953125 65.8046875 C-113.66975517 46.59412301 -108.86701255 27.91566492 -96.83642578 12.61035156 C-73.1314299 -16.02867821 -30.21439332 -22.49186467 0 0 Z M-88.46875 40.828125 C-91.49307724 45.70172239 -91.95080114 50.46429575 -91.9609375 56.1015625 C-91.96380768 57.11382904 -91.96380768 57.11382904 -91.96673584 58.14654541 C-91.96808844 59.56173072 -91.96445711 60.97692883 -91.95605469 62.39208984 C-91.94527392 64.56245426 -91.95601499 66.73200363 -91.96875 68.90234375 C-91.96742955 70.28125183 -91.96486954 71.6601594 -91.9609375 73.0390625 C-91.95868164 74.28913086 -91.95642578 75.53919922 -91.95410156 76.82714844 C-92.00672407 79.92209233 -92.00672407 79.92209233 -89.6953125 81.8046875 C-86.38847784 81.51485481 -86.38847784 81.51485481 -83.6953125 79.8046875 C-83.62259509 77.45155195 -83.61160382 75.09635082 -83.6328125 72.7421875 C-83.6534375 70.4528125 -83.6740625 68.1634375 -83.6953125 65.8046875 C-75.1153125 65.8046875 -66.5353125 65.8046875 -57.6953125 65.8046875 C-57.76041667 69.38541667 -57.82552083 72.96614583 -57.890625 76.546875 C-58.05172774 79.89062088 -58.05172774 79.89062088 -55.6953125 81.8046875 C-52.38847784 81.51485481 -52.38847784 81.51485481 -49.6953125 79.8046875 C-49.42705697 75.37310614 -49.42389858 70.93555936 -49.40014648 66.49682617 C-49.38306655 64.27523167 -49.33922201 62.05517805 -49.29492188 59.83398438 C-49.19837214 51.14561266 -49.50212482 44.66390723 -55.44140625 37.78125 C-61.25852782 33.13292653 -65.5891582 31.30544215 -73.13671875 31.49609375 C-79.8513837 32.3059541 -84.19876821 35.79479451 -88.46875 40.828125 Z M-38.6953125 33.8046875 C-39.00063152 35.85056425 -39.00063152 35.85056425 -38.95410156 38.22265625 C-38.96040588 39.13700439 -38.96671021 40.05135254 -38.97320557 40.9934082 C-38.9691571 41.98300537 -38.96510864 42.97260254 -38.9609375 43.9921875 C-38.96285095 45.00563232 -38.9647644 46.01907715 -38.96673584 47.06323242 C-38.96809841 49.20849862 -38.96439697 51.35377303 -38.95605469 53.49902344 C-38.94535632 56.79120322 -38.95594769 60.08283728 -38.96875 63.375 C-38.96742842 65.45573038 -38.96486605 67.53646041 -38.9609375 69.6171875 C-38.96498596 70.60678467 -38.96903442 71.59638184 -38.97320557 72.6159668 C-38.96690125 73.53031494 -38.96059692 74.44466309 -38.95410156 75.38671875 C-38.95251038 76.19343018 -38.95091919 77.0001416 -38.94927979 77.83129883 C-38.869625 80.03775186 -38.869625 80.03775186 -36.6953125 81.8046875 C-34.11991037 81.63961104 -34.11991037 81.63961104 -31.6953125 80.8046875 C-30.547044 78.5081505 -30.57970075 77.22155583 -30.59765625 74.671875 C-30.60087891 73.86621094 -30.60410156 73.06054688 -30.60742188 72.23046875 C-30.61580078 71.38871094 -30.62417969 70.54695313 -30.6328125 69.6796875 C-30.63732422 68.83019531 -30.64183594 67.98070312 -30.64648438 67.10546875 C-30.65828376 65.00517841 -30.67621944 62.9049242 -30.6953125 60.8046875 C-29.73431641 60.87429688 -29.73431641 60.87429688 -28.75390625 60.9453125 C-22.40821797 61.21011022 -18.75513825 60.75135159 -13.6953125 56.8046875 C-10.94862914 53.51192762 -9.8243689 50.59336553 -9.1328125 46.3671875 C-9.86110759 41.75465193 -11.49253944 38.23090984 -14.6953125 34.8046875 C-19.51004304 31.70546945 -23.41074826 31.36548044 -28.9453125 31.4921875 C-30.02425781 31.48735352 -30.02425781 31.48735352 -31.125 31.48242188 C-35.37238855 31.40386231 -35.37238855 31.40386231 -38.6953125 33.8046875 Z M-1.6953125 31.8046875 C-3.76672896 34.91181219 -3.94875775 35.61022232 -3.9699707 39.13671875 C-3.97950272 40.00772217 -3.98903473 40.87872559 -3.99885559 41.77612305 C-3.99794418 42.71367432 -3.99703278 43.65122559 -3.99609375 44.6171875 C-4.00037888 45.58245361 -4.004664 46.54771973 -4.00907898 47.54223633 C-4.01482223 49.58316259 -4.01532258 51.62410933 -4.01098633 53.66503906 C-4.00782465 56.79267138 -4.0312917 59.91935955 -4.05664062 63.046875 C-4.05891339 65.02864464 -4.05961722 67.01041682 -4.05859375 68.9921875 C-4.0678035 69.92973877 -4.07701324 70.86729004 -4.08650208 71.83325195 C-4.08027328 72.70425537 -4.07404449 73.57525879 -4.06762695 74.47265625 C-4.06825638 75.23860107 -4.0688858 76.0045459 -4.0695343 76.79370117 C-3.59335743 79.35257178 -2.76713765 80.26731621 -0.6953125 81.8046875 C1.9319789 81.72935503 1.9319789 81.72935503 4.3046875 80.8046875 C5.45989565 78.49427119 5.43719408 77.15703087 5.44995117 74.58618164 C5.45633102 73.71510269 5.46271088 72.84402374 5.46928406 71.94654846 C5.47039688 71.00383591 5.4715097 70.06112335 5.47265625 69.08984375 C5.47598465 68.12316269 5.47931305 67.15648163 5.48274231 66.1605072 C5.48781067 64.11360145 5.49015066 62.06668741 5.48999023 60.01977539 C5.49217614 56.88348821 5.51033125 53.747553 5.52929688 50.61132812 C5.53223089 48.62500121 5.53421563 46.63867261 5.53515625 44.65234375 C5.54593452 43.24131126 5.54593452 43.24131126 5.55693054 41.80177307 C5.55385391 40.92754196 5.55077728 40.05331085 5.54760742 39.15258789 C5.54974495 37.99914635 5.54974495 37.99914635 5.55192566 36.82240295 C5.41953357 34.49012296 5.41953357 34.49012296 3.3046875 31.8046875 C0.8046875 31.3046875 0.8046875 31.3046875 -1.6953125 31.8046875 Z " fill="#ffdb6e" transform="translate(297.6953125,254.1953125)"/>
<path d="M0 0 C3.5575522 3.06934396 6.93201223 6.30187727 10.29296875 9.58398438 C11.06898438 10.298125 11.845 11.01226562 12.64453125 11.74804688 C35.19076668 33.01958348 48.84553122 64.87976804 51.29296875 95.58398438 C51.40554588 99.75180853 51.38788268 103.91505387 51.35546875 108.08398438 C51.35095703 109.19257813 51.34644531 110.30117187 51.34179688 111.44335938 C51.33010033 114.15695837 51.31370961 116.87044198 51.29296875 119.58398438 C52.08034424 119.68582031 52.86771973 119.78765625 53.67895508 119.89257812 C72.70210865 122.46547001 90.7052922 132.13835437 102.65869141 147.31835938 C116.08988933 165.86254101 121.67850442 186.8328286 118.08203125 209.59570312 C115.28693806 224.84200476 108.4922345 237.98962498 98.29296875 249.58398438 C97.29330078 250.72673828 97.29330078 250.72673828 96.2734375 251.89257812 C83.51677733 265.54859467 65.5775547 274.23242295 46.828125 274.88476562 C45.00395845 274.89910861 43.1796801 274.90298548 41.35546875 274.89648438 C39.95844727 274.9206543 39.95844727 274.9206543 38.53320312 274.9453125 C37.19418945 274.9462793 37.19418945 274.9462793 35.828125 274.94726562 C34.62748413 274.95173706 34.62748413 274.95173706 33.40258789 274.95629883 C30.77454761 274.49249123 29.86115255 273.71525261 28.29296875 271.58398438 C28.53749999 268.24205745 28.89840432 266.9785488 31.29296875 264.58398438 C33.89731692 264.34911736 36.43387888 264.21666244 39.04296875 264.14648438 C61.25160023 263.10095954 77.49724727 255.60406194 92.375 239.30273438 C104.96244276 224.16489471 108.8415867 205.76533835 107.29296875 186.58398438 C105.26633051 169.88231392 96.27059584 155.24372126 83.66796875 144.33398438 C72.30587509 135.76844318 59.52878075 131.78944157 45.51171875 130.13867188 C42.29296875 129.58398438 42.29296875 129.58398438 40.29296875 127.58398438 C40.09765625 125.13232422 40.09765625 125.13232422 40.16796875 122.04492188 C40.18504883 120.91473633 40.20212891 119.78455078 40.21972656 118.62011719 C40.24389648 117.41194336 40.26806641 116.20376953 40.29296875 114.95898438 C40.63764265 77.40922453 28.47760331 44.05511005 2.23046875 17.02148438 C-21.52784772 -6.46897391 -53.52149526 -18.83628079 -86.70703125 -18.79101562 C-87.3841214 -18.7904718 -88.06121155 -18.78992798 -88.75881958 -18.78936768 C-123.11602782 -18.66306741 -153.03238993 -5.16357505 -177.70703125 18.58398438 C-178.4134375 19.215625 -179.11984375 19.84726562 -179.84765625 20.49804688 C-187.22510738 27.30569487 -192.99353826 36.1893688 -198.01904297 44.84326172 C-198.65543701 45.9330835 -198.65543701 45.9330835 -199.3046875 47.04492188 C-199.67730713 47.7079834 -200.04992676 48.37104492 -200.43383789 49.05419922 C-201.70703125 50.58398438 -201.70703125 50.58398438 -205.45703125 51.20898438 C-208.28737718 50.92594978 -210.9560706 50.28747431 -213.70703125 49.58398438 C-229.98082878 45.73186764 -246.90447623 49.74842765 -261.3828125 57.47460938 C-276.41473631 67.01308042 -285.80030976 81.05375029 -290.51953125 98.08398438 C-292.24284293 103.32123627 -292.24284293 103.32123627 -296.01953125 105.45898438 C-297.58112761 105.83772976 -299.14380761 106.21201248 -300.70703125 106.58398438 C-314.69668036 111.59379115 -326.00441666 118.06526351 -336.70703125 128.58398438 C-337.33351563 129.19757813 -337.96 129.81117188 -338.60546875 130.44335938 C-347.59701984 139.96382524 -352.98347953 152.19224546 -356.70703125 164.58398438 C-356.95324219 165.37546875 -357.19945312 166.16695312 -357.453125 166.98242188 C-362.54776203 187.00961571 -357.78630353 208.34711104 -347.71972656 225.90087891 C-345.38106027 229.78775581 -342.75299129 233.23081378 -339.70703125 236.58398438 C-339.06507813 237.31746094 -338.423125 238.0509375 -337.76171875 238.80664062 C-324.52710504 253.0423967 -307.10226782 260.13657543 -288.23193359 263.2043457 C-287.41289551 263.34380615 -286.59385742 263.4832666 -285.75 263.62695312 C-285.0180542 263.74063232 -284.2861084 263.85431152 -283.53198242 263.97143555 C-281.70703125 264.58398438 -281.70703125 264.58398438 -279.70703125 267.58398438 C-280.03116815 270.90638761 -280.31479428 272.19174741 -282.70703125 274.58398438 C-304.0396628 275.579286 -325.84169512 265.30523778 -341.45703125 251.31445312 C-359.43028362 234.43906013 -369.36958644 212.88455406 -370.63037109 188.16040039 C-371.37629427 164.43634033 -363.6559231 141.34462642 -347.70703125 123.58398438 C-346.41345703 122.13185547 -346.41345703 122.13185547 -345.09375 120.65039062 C-335.88188225 110.69144247 -325.28213866 103.30633733 -312.37109375 99.01464844 C-305.20075468 96.89367341 -305.20075468 96.89367341 -299.96484375 91.97851562 C-299.03068809 89.01770983 -299.03068809 89.01770983 -298.4609375 85.90039062 C-296.05793477 75.32966878 -288.24248323 66.00290875 -280.70703125 58.58398438 C-279.99804688 57.87628906 -279.2890625 57.16859375 -278.55859375 56.43945312 C-264.2462536 42.927984 -246.68543039 37.384928 -227.33203125 37.45898438 C-225.82769531 37.45318359 -225.82769531 37.45318359 -224.29296875 37.44726562 C-218.669483 37.45462621 -213.26880422 37.74772734 -207.70703125 38.58398438 C-207.29453125 37.9059375 -206.88203125 37.22789063 -206.45703125 36.52929688 C-186.66438764 4.63133106 -156.33167187 -18.18854552 -119.70556641 -26.89160156 C-78.10821951 -36.28813608 -33.1494324 -27.49809896 0 0 Z " fill="#ffdb6e" transform="translate(381.70703125,41.416015625)"/>
<path d="M0 0 C22.52638383 6.53975072 42.21188856 21.20945651 54.953125 40.9453125 C56.47525323 43.72123024 56.8928447 45.1798861 56.23828125 48.2890625 C53.73828125 50.1015625 53.73828125 50.1015625 51.23828125 51.2890625 C46.76836959 49.03024593 44.23017817 46.02454147 41.36328125 42.0390625 C27.27543679 23.22766189 7.42537112 11.88426356 -15.76171875 8.2890625 C-19.22535941 7.9671102 -22.64778351 7.7358447 -26.125 7.66015625 C-29.18512717 7.22947169 -30.56009405 6.42910329 -32.76171875 4.2890625 C-33.26171875 1.7890625 -33.26171875 1.7890625 -32.76171875 -0.7109375 C-26.0349811 -7.76985972 -8.5407261 -2.27263536 0 0 Z " fill="#ffdb6e" transform="translate(321.76171875,55.7109375)"/>
<path d="M0 0 C3.04035523 1.81127546 4.54069457 3.21261926 6.3125 6.25 C7 9 7 9 7 17 C-1.58 17 -10.16 17 -19 17 C-19 10.6918728 -18.84625878 8.28590916 -16 3 C-11.1216685 -1.57343578 -6.20806668 -1.40745273 0 0 Z " fill="#ffdb6e" transform="translate(233,295)"/>
<path d="M0 0 C5.50452751 7.35296144 5.16940523 18.13816255 5.36328125 27.01171875 C4.89776635 29.55953684 4.02919253 30.43572987 2 32 C-0.5 32.5 -0.5 32.5 -3 32 C-6.43288956 27.71948338 -6.71873184 23.33076597 -7.1875 18.0625 C-7.26935547 17.27681641 -7.35121094 16.49113281 -7.43554688 15.68164062 C-8.60351213 3.95291389 -8.60351213 3.95291389 -6.8125 1.125 C-4.29257359 -0.43909226 -2.90716706 -0.58143341 0 0 Z " fill="#ffdb6e" transform="translate(387,123)"/>
<path d="M0 0 C7.15789474 -0.35789474 7.15789474 -0.35789474 10.5 1.0625 C12 3 12 3 12.5 6.5 C12 10 12 10 10.5 11.9375 C6.87802345 13.47684003 3.92037077 13.19601854 0 13 C0 8.71 0 4.42 0 0 Z " fill="#ffdb6e" transform="translate(267,294)"/>
</svg>