<?xml version="1.0" encoding="UTF-8"?>
<svg version="1.1" xmlns="http://www.w3.org/2000/svg" width="512" height="512">
<path d="M0 0 C20.46 0 40.92 0 62 0 C68 18 68 18 68 21 C69.155 21.185625 70.31 21.37125 71.5 21.5625 C77.7924929 22.93522536 83.49155353 25.69665131 89.328125 28.34375 C89.9682251 28.62412109 90.6083252 28.90449219 91.26782227 29.19335938 C93 30 93 30 95.41796875 31.5 C99.86726945 32.36158924 103.26348766 29.66473181 107.0625 27.5 C108.6494279 26.60010353 110.24426417 25.71397276 111.84765625 24.84375 C112.54898682 24.44349609 113.25031738 24.04324219 113.97290039 23.63085938 C116 23 116 23 117.86882019 23.71688843 C120.32350206 25.19476969 122.10565932 26.86582172 124.12597656 28.89892578 C124.92650452 29.6996048 125.72703247 30.50028381 126.55181885 31.32522583 C127.40612488 32.18985443 128.26043091 33.05448303 129.140625 33.9453125 C130.02280701 34.8303244 130.90498901 35.7153363 131.81390381 36.62716675 C134.15194543 38.97450131 136.48555874 41.32606785 138.81713867 43.67980957 C141.19996526 46.08313927 143.58850348 48.48077767 145.9765625 50.87890625 C150.65631862 55.58071467 155.33031867 60.28818664 160 65 C158.7222015 69.08488851 157.17247511 72.35433736 154.92724609 75.99755859 C152.65601203 79.91504213 150.54633616 83.58135114 151.4140625 88.20751953 C153.06870196 92.8009513 155.47888052 96.96988711 157.95996094 101.16015625 C160.36897724 105.42174002 162 110.0925718 162 115 C163.2375 115.2475 164.475 115.495 165.75 115.75 C171.59696191 117.14213379 177.29802666 119.09934222 183 121 C183 141.46 183 161.92 183 183 C165 189 165 189 162 189 C161.814375 190.155 161.62875 191.31 161.4375 192.5 C160.06477464 198.7924929 157.30334869 204.49155353 154.65625 210.328125 C154.37587891 210.9682251 154.09550781 211.6083252 153.80664062 212.26782227 C153 214 153 214 151.5 216.41796875 C150.63841076 220.86726945 153.33526819 224.26348766 155.5 228.0625 C156.39989647 229.6494279 157.28602724 231.24426417 158.15625 232.84765625 C158.75663086 233.8996521 158.75663086 233.8996521 159.36914062 234.97290039 C160 237 160 237 159.28311157 238.86882019 C157.80523031 241.32350206 156.13417828 243.10565932 154.10107422 245.12597656 C152.90005569 246.32676849 152.90005569 246.32676849 151.67477417 247.55181885 C150.81014557 248.40612488 149.94551697 249.26043091 149.0546875 250.140625 C147.72716965 251.46389801 147.72716965 251.46389801 146.37283325 252.81390381 C144.02549869 255.15194543 141.67393215 257.48555874 139.32019043 259.81713867 C136.91686073 262.19996526 134.51922233 264.58850348 132.12109375 266.9765625 C127.41928533 271.65631862 122.71181336 276.33031867 118 281 C113.91511149 279.7222015 110.64566264 278.17247511 107.00244141 275.92724609 C103.08495787 273.65601203 99.41864886 271.54633616 94.79248047 272.4140625 C90.1990487 274.06870196 86.03011289 276.47888052 81.83984375 278.95996094 C77.57825998 281.36897724 72.9074282 283 68 283 C67.7525 284.2375 67.505 285.475 67.25 286.75 C65.94990617 292.65694804 63.97029102 298.28615604 62 304 C54.41 304 46.82 304 39 304 C39 336.01 39 368.02 39 401 C40.65 401.66 42.3 402.32 44 403 C49.12138807 406.55495619 53.84188305 410.63597868 55 417 C55.74416864 424.89383952 56.17117306 432.56124134 51 439 C46.19551361 444.04521222 41.83822945 447.60562995 34.73046875 448.3359375 C26.21423427 448.42983204 20.32404506 448.1177288 14.03515625 442.12890625 C7.6533332 435.22505269 6.51957748 429.79832071 6.6953125 420.4453125 C7.39549173 412.52790117 11.114194 408.39427507 17 403.34765625 C19 402 19 402 23 401 C23 368.99 23 336.98 23 304 C15.41 304 7.82 304 0 304 C-0.99 301.091875 -1.98 298.18375 -3 295.1875 C-3.31324219 294.27508545 -3.62648438 293.3626709 -3.94921875 292.42260742 C-4.19285156 291.69920166 -4.43648438 290.9757959 -4.6875 290.23046875 C-4.93886719 289.49207764 -5.19023437 288.75368652 -5.44921875 287.99291992 C-6 286 -6 286 -6 283 C-7.155 282.814375 -8.31 282.62875 -9.5 282.4375 C-15.7924929 281.06477464 -21.49155353 278.30334869 -27.328125 275.65625 C-27.9682251 275.37587891 -28.6083252 275.09550781 -29.26782227 274.80664062 C-31 274 -31 274 -33.41796875 272.5 C-37.86726945 271.63841076 -41.26348766 274.33526819 -45.0625 276.5 C-46.6494279 277.39989647 -48.24426417 278.28602724 -49.84765625 279.15625 C-50.8996521 279.75663086 -50.8996521 279.75663086 -51.97290039 280.36914062 C-54 281 -54 281 -56.08764648 280.24804688 C-58.52928498 278.65457618 -60.76144081 276.86546599 -63 275 C-63.32871094 275.88558594 -63.65742188 276.77117187 -63.99609375 277.68359375 C-69.8900109 293.19010815 -77.18039083 307.35942425 -88 320 C-88.45745605 320.54108398 -88.91491211 321.08216797 -89.38623047 321.63964844 C-96.76559387 330.27803813 -104.92207838 337.21139195 -114 344 C-115.37865234 345.14275391 -115.37865234 345.14275391 -116.78515625 346.30859375 C-119 348 -119 348 -121 348 C-120.67 360.54 -120.34 373.08 -120 386 C-115.71 388.31 -111.42 390.62 -107 393 C-101.375 397.3125 -101.375 397.3125 -99.0234375 399.30078125 C-96.90623445 401.14216896 -96.90623445 401.14216896 -94 403 C-91.32854463 402.19838209 -91.32854463 402.19838209 -89 401 C-89.07855225 399.9169458 -89.15710449 398.8338916 -89.23803711 397.71801758 C-91.41539205 364.92683173 -91.41539205 364.92683173 -86.046875 357.8984375 C-83.0271115 355.02582433 -79.63179708 352.94265165 -75.93603516 351.04150391 C-73.0984838 349.51502294 -70.7989585 347.48294613 -68.375 345.375 C-67.51003906 344.67503906 -66.64507812 343.97507812 -65.75390625 343.25390625 C-62.04405224 340.21761439 -58.39772088 337.10819826 -54.76513672 333.97998047 C-54.26127441 333.54959473 -53.75741211 333.11920898 -53.23828125 332.67578125 C-52.72990723 332.22493164 -52.2215332 331.77408203 -51.69775391 331.30957031 C-50 330 -50 330 -47.86083984 328.97949219 C-45.17663301 327.55580466 -43.76697526 326.50040665 -42 324 C-40.83965975 317.87509717 -40.92478553 311.83914775 -41 305.625 C-40.99190357 303.91794773 -40.98022215 302.21090845 -40.96484375 300.50390625 C-40.92836703 296.33340147 -40.96597029 292.17289295 -41 288 C-35.72 288 -30.44 288 -25 288 C-24.62577043 294.16999012 -24.35556995 300.33323621 -24.17602539 306.51196289 C-24.101132 308.60688396 -23.99915903 310.70103519 -23.8684082 312.79321289 C-22.84143017 329.66384419 -22.84143017 329.66384419 -26.43005371 335.21020508 C-29.87205386 339.05324019 -33.83454521 341.99694251 -38.15492249 344.78352356 C-40.82130416 346.54149333 -43.19058302 348.55970902 -45.625 350.625 C-46.48996094 351.32496094 -47.35492188 352.02492188 -48.24609375 352.74609375 C-51.95594776 355.78238561 -55.60227912 358.89180174 -59.23486328 362.02001953 C-59.73872559 362.45040527 -60.24258789 362.88079102 -60.76171875 363.32421875 C-61.27009277 363.77055664 -61.7784668 364.21689453 -62.30224609 364.67675781 C-64 366 -64 366 -66.13916016 367.14355469 C-68.62994223 368.57335567 -70.22474088 369.72674058 -72 372 C-73.12907347 376.94380713 -73.07634192 381.83158626 -73 386.875 C-73.00809968 388.24481785 -73.01978411 389.61461946 -73.03515625 390.984375 C-73.05867789 394.32444756 -73.04574095 397.6602757 -73 401 C-72.21898926 401.29946533 -71.43797852 401.59893066 -70.63330078 401.9074707 C-65.21412451 404.15583097 -61.17606193 408.19915516 -58 413.0625 C-55.66681439 419.80281398 -55.62243218 428.88943456 -58.5 435.4375 C-61.8716479 441.02480223 -66.67752734 445.41938183 -73 447 C-73 463.17 -73 479.34 -73 496 C-152.2 496 -231.4 496 -313 496 C-313 471.40127867 -309.65401252 452.20092673 -293 434 C-292.40960938 433.31808594 -291.81921875 432.63617188 -291.2109375 431.93359375 C-276.56080291 416.00546869 -253.68941248 409.38352968 -234 402 C-233.67 385.5 -233.34 369 -233 352 C-243.36530619 352.15727344 -243.36530619 352.15727344 -253.72973633 352.36035156 C-266.60699127 352.45836762 -276.48196385 350.08621598 -286 341 C-295.04005559 331.530318 -297.63595303 321.39238727 -297.390625 308.55078125 C-297.38213531 306.84283638 -297.38213531 306.84283638 -297.37347412 305.10038757 C-297.35128579 301.50397669 -297.30112144 297.90860399 -297.25 294.3125 C-297.22991238 291.85743638 -297.2116656 289.40235696 -297.1953125 286.94726562 C-297.15147872 280.9644963 -297.08474456 274.98232235 -297 269 C-297.78101074 268.70883301 -298.56202148 268.41766602 -299.36669922 268.11767578 C-304.93360278 265.75486431 -309.45914738 259.87008488 -312 254.4375 C-316.30078962 238.55115633 -310.65822838 221.8904693 -306.85986328 206.48382568 C-306.21523282 203.84631009 -305.59178755 201.20398091 -304.96822929 198.56141853 C-299.42259676 175.10726488 -293.26646768 152.4747262 -277 134 C-276.00419922 132.78957031 -276.00419922 132.78957031 -274.98828125 131.5546875 C-260.68397095 114.68564873 -240.50902938 102.95966866 -219 98 C-218.21093262 97.81743652 -217.42186523 97.63487305 -216.60888672 97.44677734 C-208.78646148 95.82690208 -201.09580004 95.61367504 -193.125 95.625 C-192.44602661 95.62587616 -191.76705322 95.62675232 -191.06750488 95.62765503 C-165.21099521 95.73717797 -138.65083193 102.48938229 -117.40625 117.87890625 C-114.97154253 119.29969236 -114.97154253 119.29969236 -111.9921875 118.41796875 C-110.96351563 118.01191406 -109.93484375 117.60585937 -108.875 117.1875 C-103.197411 115 -103.197411 115 -100 115 C-99.814375 113.845 -99.62875 112.69 -99.4375 111.5 C-98.06477464 105.2075071 -95.30334869 99.50844647 -92.65625 93.671875 C-92.37587891 93.0317749 -92.09550781 92.3916748 -91.80664062 91.73217773 C-91 90 -91 90 -89.5 87.58203125 C-88.63841076 83.13273055 -91.33526819 79.73651234 -93.5 75.9375 C-94.39989647 74.3505721 -95.28602724 72.75573583 -96.15625 71.15234375 C-96.55650391 70.45101318 -96.95675781 69.74968262 -97.36914062 69.02709961 C-98 67 -98 67 -97.28311157 65.13117981 C-95.80523031 62.67649794 -94.13417828 60.89434068 -92.10107422 58.87402344 C-91.3003952 58.07349548 -90.49971619 57.27296753 -89.67477417 56.44818115 C-88.81014557 55.59387512 -87.94551697 54.73956909 -87.0546875 53.859375 C-86.1696756 52.97719299 -85.2846637 52.09501099 -84.37283325 51.18609619 C-82.02549869 48.84805457 -79.67393215 46.51444126 -77.32019043 44.18286133 C-74.91686073 41.80003474 -72.51922233 39.41149652 -70.12109375 37.0234375 C-65.41928533 32.34368138 -60.71181336 27.66968133 -56 23 C-51.91511149 24.2777985 -48.64566264 25.82752489 -45.00244141 28.07275391 C-41.08495787 30.34398797 -37.41864886 32.45366384 -32.79248047 31.5859375 C-28.1990487 29.93129804 -24.03011289 27.52111948 -19.83984375 25.04003906 C-15.57825998 22.63102276 -10.9074282 21 -6 21 C-5.62875 19.14375 -5.62875 19.14375 -5.25 17.25 C-3.85786621 11.40303809 -1.90065778 5.70197334 0 0 Z " fill="#010101" transform="translate(321,8)"/>
<path d="M0 0 C12.54 0 25.08 0 38 0 C39.98 5.94 41.96 11.88 44 18 C49.84781419 20.66936444 49.84781419 20.66936444 55.61328125 22.0703125 C60.2397408 22.94868878 64.29052933 24.61799247 68.5625 26.5625 C69.20429199 26.84440186 69.84608398 27.12630371 70.50732422 27.41674805 C73.70340476 28.84635412 76.63774478 30.39314575 79.58984375 32.27734375 C83.53126776 34.26837238 84.85933289 34.33445903 89 33 C92.14588314 31.48309197 95.15338326 29.79650282 98.1953125 28.08203125 C101 27 101 27 102.83642578 27.60571289 C105.72382665 29.46646062 108.03206562 31.7856206 110.421875 34.2265625 C110.92672424 34.73424164 111.43157349 35.24192078 111.95172119 35.76498413 C113.55592096 37.38033842 115.15300856 39.00252209 116.75 40.625 C117.83938107 41.72441698 118.9292199 42.82338059 120.01953125 43.921875 C122.68501885 46.6093602 125.34415143 49.30299021 128 52 C126.43139317 56.8565437 124.44362968 61.01176078 121.92578125 65.4375 C120.70886716 68.80583605 121.03121999 70.55783033 122 74 C123.20972382 76.46650783 124.44868438 78.81227748 125.8125 81.1875 C133.48381063 95.06972976 133.48381063 95.06972976 134.3046875 102.91015625 C134.74402681 106.2410655 135.1125379 108.19334832 137 111 C142.20698444 114.06352121 148.22386314 115.40700225 154 117 C155 118 155 118 155.11352539 121.41821289 C155.11336628 122.93636988 155.10767226 124.45453229 155.09765625 125.97265625 C155.09553383 127.16912025 155.09553383 127.16912025 155.09336853 128.38975525 C155.08775316 130.94737435 155.07519812 133.50490718 155.0625 136.0625 C155.05748698 137.79231645 155.05292373 139.52213426 155.04882812 141.25195312 C155.03777875 145.50133553 155.02050386 149.75065312 155 154 C153.42538264 154.65635807 151.84801271 155.30611493 150.26953125 155.953125 C149.39143799 156.31567383 148.51334473 156.67822266 147.60864258 157.05175781 C145.26382263 157.90410041 143.14380191 158.38169318 140.6875 158.75 C138.63362037 159.37692519 138.63362037 159.37692519 137 161 C135.38988968 164.77080435 134.33371951 168.55311864 133.28125 172.5078125 C132.05572567 177.04818246 130.35069295 181.27266354 128.4375 185.5625 C128.15640381 186.20405029 127.87530762 186.84560059 127.58569336 187.5065918 C126.15298527 190.70154333 124.60705609 193.63742854 122.72265625 196.58984375 C120.73162762 200.53126776 120.66554097 201.85933289 122 206 C123.51690803 209.14588314 125.20349718 212.15338326 126.91796875 215.1953125 C128 218 128 218 127.39428711 219.83642578 C125.53353938 222.72382665 123.2143794 225.03206562 120.7734375 227.421875 C120.26575836 227.92672424 119.75807922 228.43157349 119.23501587 228.95172119 C117.61966158 230.55592096 115.99747791 232.15300856 114.375 233.75 C113.27558302 234.83938107 112.17661941 235.9292199 111.078125 237.01953125 C108.3906398 239.68501885 105.69700979 242.34415143 103 245 C98.1434563 243.43139317 93.98823922 241.44362968 89.5625 238.92578125 C86.19639455 237.70967303 84.44255258 238.04207233 81 239 C78.50421152 240.17103625 76.10713321 241.37902753 73.6875 242.6875 C65.15603397 247.13725686 55.46439309 251.821774 45.88256836 253.33422852 C43.86709861 253.82146425 43.86709861 253.82146425 43.01098633 255.65820312 C42.78693115 256.35880859 42.56287598 257.05941406 42.33203125 257.78125 C42.07873047 258.54050781 41.82542969 259.29976563 41.56445312 260.08203125 C41.19223633 261.27892578 41.19223633 261.27892578 40.8125 262.5 C38.06751497 270.93248503 38.06751497 270.93248503 37 272 C34.3337397 272.08855161 31.69352886 272.11524673 29.02734375 272.09765625 C28.22970108 272.0962413 27.43205841 272.09482635 26.61024475 272.09336853 C24.05262565 272.08775316 21.49509282 272.07519812 18.9375 272.0625 C17.20768355 272.05748698 15.47786574 272.05292373 13.74804688 272.04882812 C9.49866447 272.03777875 5.24934688 272.02050386 1 272 C0.39465846 270.50047375 -0.2091975 269.00034778 -0.8125 267.5 C-1.3705835 266.1377832 -1.3705835 266.1377832 -1.93994141 264.74804688 C-3 262 -3 262 -3.66552734 259.64257812 C-4.29385718 257.23066952 -4.29385718 257.23066952 -6 254 C-8.77738775 252.70346201 -10.69889048 252.07118812 -13.625 251.5 C-20.20460075 249.90705901 -26.15166478 247.82446913 -32.25 244.875 C-32.95205566 244.53791016 -33.65411133 244.20082031 -34.37744141 243.85351562 C-37.27690511 242.43296829 -39.94695731 241.03668521 -42.609375 239.1953125 C-45.87637627 237.56181187 -47.52418586 237.99617073 -51 239 C-54.14588314 240.51690803 -57.15338326 242.20349718 -60.1953125 243.91796875 C-63 245 -63 245 -64.83642578 244.39428711 C-67.72382665 242.53353938 -70.03206562 240.2143794 -72.421875 237.7734375 C-73.17914886 237.01191879 -73.17914886 237.01191879 -73.95172119 236.23501587 C-75.55592096 234.61966158 -77.15300856 232.99747791 -78.75 231.375 C-79.83938107 230.27558302 -80.9292199 229.17661941 -82.01953125 228.078125 C-84.68501885 225.3906398 -87.34415143 222.69700979 -90 220 C-88.43139317 215.1434563 -86.44362968 210.98823922 -83.92578125 206.5625 C-82.70967303 203.19639455 -83.04207233 201.44255258 -84 198 C-85.17103625 195.50421152 -86.37902753 193.10713321 -87.6875 190.6875 C-92.61453877 181.24094703 -96.4135402 171.3458392 -99 161 C-104.94 159.02 -110.88 157.04 -117 155 C-117 142.46 -117 129.92 -117 117 C-111.06 115.02 -105.12 113.04 -99 111 C-96.39321057 104.79071006 -96.39321057 104.79071006 -95 98.68359375 C-94.06076123 93.63941619 -92.13048529 89.33367963 -89.875 84.75 C-89.53710449 84.04770264 -89.19920898 83.34540527 -88.85107422 82.62182617 C-87.4330451 79.72137603 -86.03653461 77.05282494 -84.1953125 74.390625 C-82.56181187 71.12362373 -82.99617073 69.47581414 -84 66 C-85.51690803 62.85411686 -87.20349718 59.84661674 -88.91796875 56.8046875 C-90 54 -90 54 -89.39428711 52.16357422 C-87.53353938 49.27617335 -85.2143794 46.96793438 -82.7734375 44.578125 C-82.26575836 44.07327576 -81.75807922 43.56842651 -81.23501587 43.04827881 C-79.61966158 41.44407904 -77.99747791 39.84699144 -76.375 38.25 C-75.27558302 37.16061893 -74.17661941 36.0707801 -73.078125 34.98046875 C-70.3906398 32.31498115 -67.69700979 29.65584857 -65 27 C-60.1434563 28.56860683 -55.98823922 30.55637032 -51.5625 33.07421875 C-48.20359478 34.28772567 -46.42970003 33.96514172 -43 33 C-40.68432314 31.82817802 -38.48140163 30.62364874 -36.25 29.3125 C-26.75381338 23.97247893 -16.549863 20.63746575 -6 18 C-4.02 12.06 -2.04 6.12 0 0 Z " fill="#FAD56F" transform="translate(333,24)"/>
<path d="M0 0 C5.28 0 10.56 0 16 0 C16 5.28 16 10.56 16 16 C21.28 16 26.56 16 32 16 C32 10.72 32 5.44 32 0 C37.28 0 42.56 0 48 0 C48 5.28 48 10.56 48 16 C53.28 16 58.56 16 64 16 C64 10.72 64 5.44 64 0 C69.28 0 74.56 0 80 0 C80 5.28 80 10.56 80 16 C85.28 16 90.56 16 96 16 C96 10.72 96 5.44 96 0 C101.28 0 106.56 0 112 0 C112 5.28 112 10.56 112 16 C117.28 16 122.56 16 128 16 C128 21.28 128 26.56 128 32 C133.28 32 138.56 32 144 32 C144 37.28 144 42.56 144 48 C138.72 48 133.44 48 128 48 C128 53.28 128 58.56 128 64 C133.28 64 138.56 64 144 64 C144 69.28 144 74.56 144 80 C138.72 80 133.44 80 128 80 C128 85.28 128 90.56 128 96 C133.28 96 138.56 96 144 96 C144 101.28 144 106.56 144 112 C138.72 112 133.44 112 128 112 C128 117.28 128 122.56 128 128 C133.28 128 138.56 128 144 128 C144 133.28 144 138.56 144 144 C138.72 144 133.44 144 128 144 C128 149.28 128 154.56 128 160 C122.72 160 117.44 160 112 160 C112 165.28 112 170.56 112 176 C106.72 176 101.44 176 96 176 C96 170.72 96 165.44 96 160 C90.72 160 85.44 160 80 160 C80 165.28 80 170.56 80 176 C74.72 176 69.44 176 64 176 C64 170.72 64 165.44 64 160 C58.72 160 53.44 160 48 160 C48 165.28 48 170.56 48 176 C42.72 176 37.44 176 32 176 C32 170.72 32 165.44 32 160 C26.72 160 21.44 160 16 160 C16 165.28 16 170.56 16 176 C10.72 176 5.44 176 0 176 C0 170.72 0 165.44 0 160 C-5.28 160 -10.56 160 -16 160 C-16 154.72 -16 149.44 -16 144 C-21.28 144 -26.56 144 -32 144 C-32 138.72 -32 133.44 -32 128 C-26.72 128 -21.44 128 -16 128 C-16 122.72 -16 117.44 -16 112 C-21.28 112 -26.56 112 -32 112 C-32 106.72 -32 101.44 -32 96 C-26.72 96 -21.44 96 -16 96 C-16 90.72 -16 85.44 -16 80 C-21.28 80 -26.56 80 -32 80 C-32 74.72 -32 69.44 -32 64 C-26.72 64 -21.44 64 -16 64 C-16 58.72 -16 53.44 -16 48 C-21.28 48 -26.56 48 -32 48 C-32 42.72 -32 37.44 -32 32 C-26.72 32 -21.44 32 -16 32 C-16 26.72 -16 21.44 -16 16 C-10.72 16 -5.44 16 0 16 C0 10.72 0 5.44 0 0 Z " fill="#000000" transform="translate(296,72)"/>
<path d="M0 0 C13.94018404 -0.79068861 23.0933889 0.93510991 33.89770508 10.34057617 C40.59909732 16.37053413 40.59909732 16.37053413 41.85253906 20.13085938 C41.82199206 21.69431049 41.75571626 23.25724114 41.66503906 24.81835938 C41.63699777 31.24916197 43.31304533 35.54117802 47.82910156 40.14648438 C51.58083911 43.51153875 51.58083911 43.51153875 55.85253906 46.13085938 C58.60246479 57.13056228 56.85253906 68.79262514 56.85253906 80.13085938 C-11.45746094 80.13085938 -79.76746094 80.13085938 -150.14746094 80.13085938 C-148.51755293 63.83177926 -141.79325681 50.60915975 -129.45996094 39.75585938 C-118.76850252 31.5386112 -106.19046367 26.71480544 -93.69921875 21.89599609 C-91.4091212 21.01036864 -89.12592514 20.10843763 -86.84277344 19.20507812 C-77.05438287 15.3769507 -67.2096122 12.27149621 -57.03997803 9.62469482 C-54.60504106 8.98931975 -52.1797162 8.32002672 -49.75292969 7.65429688 C-37.98599613 4.5504207 -26.22875265 2.55015913 -14.14746094 1.13085938 C-12.50390625 0.93169922 -12.50390625 0.93169922 -10.82714844 0.72851562 C-7.22101756 0.36187558 -3.61647783 0.22037655 0 0 Z " fill="#4EC0E8" transform="translate(175.1474609375,407.869140625)"/>
<path d="M0 0 C10.01442037 -0.09292952 20.02873712 -0.16388109 30.04350185 -0.20724869 C34.69444005 -0.22806943 39.34508192 -0.25628555 43.99584961 -0.30175781 C48.48923188 -0.34541328 52.9823302 -0.36917852 57.47590828 -0.37950897 C59.18503345 -0.38686515 60.89414415 -0.40122972 62.60314751 -0.42292023 C81.34188709 -0.65116061 81.34188709 -0.65116061 89.3046875 5.89453125 C93.31312421 10.79040793 97 15.40540913 97 22 C94.8046875 23.6484375 94.8046875 23.6484375 91.875 25.375 C78.84488961 33.38968427 71.18488102 44.08841821 66.890625 58.80078125 C63.34487194 73.77291289 66.41535459 88.37779257 74 101.5625 C78.04198305 108.00441049 82.38478318 112.66541226 88.6875 116.8125 C89.26822266 117.20630859 89.84894531 117.60011719 90.44726562 118.00585938 C92.58708764 119.44807467 94.68959138 120.84479569 97 122 C97 134.54 97 147.08 97 160 C77.85472834 160.16043524 77.85472834 160.16043524 69.6640625 160.1953125 C64.08545625 160.21918013 58.50711381 160.24734872 52.92871094 160.30175781 C48.42884946 160.3453703 43.92927107 160.36916957 39.42921448 160.37950897 C37.71647183 160.38687279 36.00374385 160.40125255 34.29112244 160.42292023 C16.31627409 160.64119167 16.31627409 160.64119167 8.5390625 153.8515625 C7.90742187 153.11679687 7.27578125 152.38203125 6.625 151.625 C5.97789063 150.89539063 5.33078125 150.16578125 4.6640625 149.4140625 C1.27503477 144.49758566 0.75514724 139.99778504 0.875 134.125 C0.89304687 132.97257813 0.91109375 131.82015625 0.9296875 130.6328125 C0.96449219 129.32957031 0.96449219 129.32957031 1 128 C1.60360352 127.99589111 2.20720703 127.99178223 2.82910156 127.98754883 C16.46160421 127.82513338 26.5732675 127.14966986 38.375 119.9375 C44.44454385 113.14539141 47.51948335 104.88309989 49 96 C43.72 96 38.44 96 33 96 C32.67 98.31 32.34 100.62 32 103 C30.765625 105.14453125 30.765625 105.14453125 29.25 106.8125 C28.51523438 107.65748047 28.51523438 107.65748047 27.765625 108.51953125 C22.64695216 112.81151578 17.02327361 112.24141704 10.6875 112.125 C9.29047852 112.11146484 9.29047852 112.11146484 7.86523438 112.09765625 C5.5765564 112.07418263 3.28841328 112.04134729 1 112 C1.02731201 111.1529248 1.05462402 110.30584961 1.08276367 109.43310547 C1.15840755 106.26733322 1.18418499 103.10603787 1.17700195 99.93945312 C1.18394726 98.57365003 1.21034402 97.20779434 1.25708008 95.84277344 C1.4027072 91.35942166 1.33059814 87.30059546 0 83 C-2.67036382 80.61994551 -5.06003158 79.384017 -8.37304688 78.06420898 C-11 77 -11 77 -13.6875 74.1875 C-17.06350807 65.98862326 -14.13451638 57.53840095 -11.9375 49.375 C-11.29489305 46.90580025 -10.655703 44.43570931 -10.01953125 41.96484375 C-9.85447083 41.32589676 -9.6894104 40.68694977 -9.51934814 40.02864075 C-7.21075048 31.0237292 -5.23429246 21.94144068 -3.22241211 12.86669922 C-2.94534424 11.62033691 -2.66827637 10.37397461 -2.3828125 9.08984375 C-2.01760498 7.43263306 -2.01760498 7.43263306 -1.64501953 5.74194336 C-1 3 -1 3 0 0 Z " fill="#E5E8EC" transform="translate(39,184)"/>
<path d="M0 0 C5.28 0 10.56 0 16 0 C16 5.28 16 10.56 16 16 C21.28 16 26.56 16 32 16 C32 10.72 32 5.44 32 0 C37.28 0 42.56 0 48 0 C48 5.28 48 10.56 48 16 C53.28 16 58.56 16 64 16 C64 10.72 64 5.44 64 0 C69.28 0 74.56 0 80 0 C80 5.28 80 10.56 80 16 C85.28 16 90.56 16 96 16 C96 10.72 96 5.44 96 0 C101.28 0 106.56 0 112 0 C112 5.28 112 10.56 112 16 C117.28 16 122.56 16 128 16 C128 21.28 128 26.56 128 32 C133.28 32 138.56 32 144 32 C144 37.28 144 42.56 144 48 C138.72 48 133.44 48 128 48 C128 53.28 128 58.56 128 64 C133.28 64 138.56 64 144 64 C144 69.28 144 74.56 144 80 C138.72 80 133.44 80 128 80 C128 85.28 128 90.56 128 96 C133.28 96 138.56 96 144 96 C144 101.28 144 106.56 144 112 C138.72 112 133.44 112 128 112 C128 117.28 128 122.56 128 128 C133.28 128 138.56 128 144 128 C144 133.28 144 138.56 144 144 C138.72 144 133.44 144 128 144 C128 149.28 128 154.56 128 160 C122.72 160 117.44 160 112 160 C112 165.28 112 170.56 112 176 C106.72 176 101.44 176 96 176 C96 170.72 96 165.44 96 160 C90.72 160 85.44 160 80 160 C80 165.28 80 170.56 80 176 C74.72 176 69.44 176 64 176 C64 170.72 64 165.44 64 160 C58.72 160 53.44 160 48 160 C48 165.28 48 170.56 48 176 C42.72 176 37.44 176 32 176 C32 170.72 32 165.44 32 160 C26.72 160 21.44 160 16 160 C16 165.28 16 170.56 16 176 C10.72 176 5.44 176 0 176 C0 170.72 0 165.44 0 160 C-5.28 160 -10.56 160 -16 160 C-16 154.72 -16 149.44 -16 144 C-21.28 144 -26.56 144 -32 144 C-32 138.72 -32 133.44 -32 128 C-26.72 128 -21.44 128 -16 128 C-16 122.72 -16 117.44 -16 112 C-21.28 112 -26.56 112 -32 112 C-32 106.72 -32 101.44 -32 96 C-26.72 96 -21.44 96 -16 96 C-16 90.72 -16 85.44 -16 80 C-21.28 80 -26.56 80 -32 80 C-32 74.72 -32 69.44 -32 64 C-26.72 64 -21.44 64 -16 64 C-16 58.72 -16 53.44 -16 48 C-21.28 48 -26.56 48 -32 48 C-32 42.72 -32 37.44 -32 32 C-26.72 32 -21.44 32 -16 32 C-16 26.72 -16 21.44 -16 16 C-10.72 16 -5.44 16 0 16 C0 10.72 0 5.44 0 0 Z M0 32 C0 68.96 0 105.92 0 144 C36.96 144 73.92 144 112 144 C112 107.04 112 70.08 112 32 C75.04 32 38.08 32 0 32 Z " fill="#000000" transform="translate(296,72)"/>
<path d="M0 0 C36.96 0 73.92 0 112 0 C112 36.96 112 73.92 112 112 C75.04 112 38.08 112 0 112 C0 75.04 0 38.08 0 0 Z M16 16 C16 42.4 16 68.8 16 96 C42.4 96 68.8 96 96 96 C96 69.6 96 43.2 96 16 C69.6 16 43.2 16 16 16 Z " fill="#CCD1D9" transform="translate(296,104)"/>
<path d="M0 0 C10.43945517 6.24993698 16.62929797 15.44742295 20 27 C21.3322862 38.78918368 18.75886085 50.39281586 11.6796875 60.0078125 C4.71748084 68.26531343 -5.18251641 74.32190353 -16.15234375 75.2734375 C-29.65122671 75.63563663 -39.64824627 71.6971032 -49.64453125 62.484375 C-57.88850736 53.88559485 -60.44819718 42.02578818 -60.34375 30.484375 C-59.30233389 19.92820266 -53.31894725 10.77946999 -45.625 3.75 C-32.15101091 -7.19575714 -15.22213518 -7.85925457 0 0 Z " fill="#B1D97D" transform="translate(180,221)"/>
<path d="M0 0 C2 1 2 1 3.078125 3.921875 C3.47407165 5.19627544 3.86432011 6.47245499 4.25 7.75 C6.28287136 14.24862565 8.83105457 20.13598249 11.9609375 26.1953125 C13.18387488 29.49632391 13.14187599 30.69957772 12 34 C10.52500978 37.02269123 8.97656072 39.9730322 7.3515625 42.91601562 C5.51373839 46.25074398 5.51373839 46.25074398 5.16040039 49.94970703 C6.27937911 52.68224071 7.86462309 54.08616822 10.03515625 56.08203125 C10.84404297 56.84966797 11.65292969 57.61730469 12.48632812 58.40820312 C14.20003805 60.0075791 15.92139876 61.5987975 17.65039062 63.18164062 C23.78235617 69.03955184 23.78235617 69.03955184 24.78515625 73.46484375 C23.75196752 78.11676318 22.2202754 82.36290752 20.375 86.75 C20.00890625 87.63743896 19.6428125 88.52487793 19.265625 89.43920898 C11.91752406 106.97605566 1.26346327 120.90483628 -12.23364258 134.20263672 C-13.34073785 135.32916546 -14.41824904 136.48644105 -15.44799805 137.68408203 C-20.69334376 143.77208664 -26.28299291 147.78043604 -34.45654297 148.53759766 C-45.62984914 149.19674075 -56.83835554 148.60758952 -68 148 C-68 137.44 -68 126.88 -68 116 C-65.69 115.938125 -63.38 115.87625 -61 115.8125 C-48.30167566 115.17087831 -36.40331174 111.45371378 -26 104 C-25.43023437 103.60039062 -24.86046875 103.20078125 -24.2734375 102.7890625 C-13.91860702 94.87690998 -6.93025296 80.68224053 -5 68 C-3.45764276 51.50221134 -7.3302783 36.28243972 -17.875 23.1875 C-21.15228807 19.57899665 -25.00636128 16.76716592 -29 14 C-24.84814241 9.44634974 -20.19247701 6.28229117 -15 3 C-14.38769531 2.56945312 -13.77539062 2.13890625 -13.14453125 1.6953125 C-8.32315726 -1.5042263 -5.41509848 -1.19315729 0 0 Z " fill="#CACFD6" transform="translate(220,196)"/>
<path d="M0 0 C5.28 0 10.56 0 16 0 C16 11.88 16 23.76 16 36 C17.32 36.66 18.64 37.32 20 38 C21.43029834 38.97499491 22.83934081 39.98160639 24.23046875 41.01171875 C25.43606445 41.90213867 25.43606445 41.90213867 26.66601562 42.81054688 C27.49810547 43.42994141 28.33019531 44.04933594 29.1875 44.6875 C30.00025391 45.28755859 30.81300781 45.88761719 31.65039062 46.50585938 C34.10884142 48.32671673 36.5617614 50.15210194 39 52 C39.75201187 52.4046196 40.50402374 52.8092392 41.27882385 53.22612 C44.08768027 54.93480414 45.96605214 56.40232187 48 59 C49.25843199 64.33370857 49.05115527 69.56232152 48.87890625 74.99609375 C48.86210091 76.55546889 48.84929882 78.11489184 48.84031677 79.67433167 C48.80610039 83.76090813 48.71783523 87.84456343 48.61798096 91.92999268 C48.52558461 96.10592125 48.48473963 100.28232627 48.43945312 104.45898438 C48.34319256 112.6406573 48.18978191 120.81996439 48 129 C49.17151611 129.449198 49.17151611 129.449198 50.36669922 129.9074707 C55.78587549 132.15583097 59.82393807 136.19915516 63 141.0625 C65.33318561 147.80281398 65.37756782 156.88943456 62.5 163.4375 C58.98003218 169.26235779 53.51037066 173.98216582 47 176 C39.16391792 176.80514105 31.38077423 177.12460392 25 172 C19.95478778 167.19551361 16.39437005 162.83822945 15.6640625 155.73046875 C15.56980312 147.18114273 15.89498446 141.30690155 21.90625 135 C25.34232923 131.82034459 27.36724364 130.15818909 32 129 C32 108.87 32 88.74 32 68 C30.68 67.34 29.36 66.68 28 66 C26.56970166 65.02500509 25.16065919 64.01839361 23.76953125 62.98828125 C22.96580078 62.39466797 22.16207031 61.80105469 21.33398438 61.18945312 C20.50189453 60.57005859 19.66980469 59.95066406 18.8125 59.3125 C17.59336914 58.41241211 17.59336914 58.41241211 16.34960938 57.49414062 C13.89115858 55.67328327 11.4382386 53.84789806 9 52 C8.24798813 51.53193436 7.49597626 51.06386871 6.72117615 50.58161926 C0.46550948 46.39777657 0.46550948 46.39777657 -0.78535461 42.64183044 C-1.04000144 39.87599207 -1.01480813 37.24674885 -0.87890625 34.47265625 C-0.86617172 33.48373886 -0.85343719 32.49482147 -0.84031677 31.47593689 C-0.79016758 28.33556668 -0.67731819 25.2011045 -0.5625 22.0625 C-0.51732911 19.92651612 -0.47626909 17.79044109 -0.43945312 15.65429688 C-0.34053624 10.4339421 -0.18539403 5.21797038 0 0 Z " fill="#000000" transform="translate(376,328)"/>
<path d="M0 0 C5.28 0 10.56 0 16 0 C19.12024866 42.69673597 19.12024866 42.69673597 12.4140625 50.7890625 C8.76600479 53.92095295 4.73141647 56.03908141 0.32617188 57.92480469 C-3.20627631 59.55756096 -6.01580662 61.91308777 -9 64.375 C-13.74545455 68 -13.74545455 68 -16 68 C-16 88.13 -16 108.26 -16 129 C-14.35 129.66 -12.7 130.32 -11 131 C-5.87861193 134.55495619 -1.15811695 138.63597868 0 145 C0.74416864 152.89383952 1.17117306 160.56124134 -4 167 C-8.80448639 172.04521222 -13.16177055 175.60562995 -20.26953125 176.3359375 C-28.78576573 176.42983204 -34.67595494 176.1177288 -40.96484375 170.12890625 C-47.3466668 163.22505269 -48.48042252 157.79832071 -48.3046875 148.4453125 C-47.60450827 140.52790117 -43.885806 136.39427507 -38 131.34765625 C-35.94703863 129.96431314 -34.38821676 129.52957463 -32 129 C-32.05995651 127.73118484 -32.05995651 127.73118484 -32.12112427 126.43673706 C-32.48400434 118.40726662 -32.7568759 110.38059859 -32.93261909 102.34477043 C-33.02603287 98.21404382 -33.15227086 94.09016221 -33.35791016 89.96337891 C-34.64804385 63.38744521 -34.64804385 63.38744521 -30.28796387 56.16339111 C-26.2444704 51.71749597 -21.59143368 48.81036152 -16.23602295 46.16958618 C-12.81130982 44.37823733 -9.9994896 42.05482828 -7 39.625 C-2.25454545 36 -2.25454545 36 0 36 C0 24.12 0 12.24 0 0 Z " fill="#000000" transform="translate(312,328)"/>
<path d="M0 0 C5.28 0 10.56 0 16 0 C15.94457031 2.49433594 15.88914062 4.98867188 15.83203125 7.55859375 C15.81580399 10.00143859 15.81851742 12.44359007 15.82299805 14.88647461 C15.81606485 16.57124212 15.78974241 18.25605453 15.74291992 19.94018555 C15.26436184 30.07291673 15.26436184 30.07291673 19.30029297 38.97509766 C22.09190035 41.25430035 24.91603726 43.14212987 28 45 C29.2005922 45.96092596 30.382603 46.94629687 31.53125 47.96875 C36.50672724 52.21099902 41.49588838 56.42901973 46.5625 60.5625 C47.38588867 61.25682129 48.20927734 61.95114258 49.05761719 62.66650391 C51.94754051 65.05219351 51.94754051 65.05219351 55.12963867 66.9309082 C63.19432708 72.33537602 63.19432708 72.33537602 64.63015747 77.08413696 C65.495313 82.92157968 65.09565722 88.75861009 64.75 94.625 C64.68971209 96.40997589 64.63497578 98.19514838 64.5859375 99.98046875 C64.45461069 104.32522323 64.24819435 108.66041718 64 113 C64.78101074 113.29946533 65.56202148 113.59893066 66.36669922 113.9074707 C71.78587549 116.15583097 75.82393807 120.19915516 79 125.0625 C81.33318561 131.80281398 81.37756782 140.88943456 78.5 147.4375 C74.98003218 153.26235779 69.51037066 157.98216582 63 160 C55.16391792 160.80514105 47.38077423 161.12460392 41 156 C35.95478778 151.19551361 32.39437005 146.83822945 31.6640625 139.73046875 C31.56980312 131.18114273 31.89498446 125.30690155 37.90625 119 C41.20648086 115.94605502 43.5851508 113.97896982 48 113 C48.13030971 109.03343396 48.18608596 105.0730028 48.17700195 101.10424805 C48.18729617 99.10214267 48.25421866 97.10058452 48.32226562 95.09960938 C48.30301305 87.58834063 48.30301305 87.58834063 44.69970703 81.24365234 C41.89845771 78.95657751 39.03566676 76.96152801 36 75 C34.80352265 74.03395533 33.62232014 73.04814542 32.46875 72.03125 C27.49327276 67.78900098 22.50411162 63.57098027 17.4375 59.4375 C16.61411133 58.73866699 15.79072266 58.03983398 14.94238281 57.31982422 C12.06770483 54.93941287 12.06770483 54.93941287 8.87036133 53.19213867 C4.45358506 50.36590636 0.77094783 47.90103236 -0.63015747 42.62875366 C-1.51128757 35.7235919 -1.09224339 28.80596672 -0.75 21.875 C-0.68973473 19.75275522 -0.63499451 17.63034594 -0.5859375 15.5078125 C-0.4544047 10.3344468 -0.24780929 5.16904761 0 0 Z " fill="#000000" transform="translate(408,296)"/>
<path d="M0 0 C26.4 0 52.8 0 80 0 C80 10.56 80 21.12 80 32 C72.9153125 32.6496875 72.9153125 32.6496875 65.6875 33.3125 C44.64764363 35.33879464 24.96672562 39.01695666 4.49584961 44.4050293 C2 45 2 45 0 45 C0 30.15 0 15.3 0 0 Z " fill="#E5E8EC" transform="translate(104,360)"/>
<path d="M0 0 C0.79801025 -0.01313232 1.59602051 -0.02626465 2.41821289 -0.03979492 C6.33986534 -0.04522368 8.28936116 -0.03625923 11.625 2.1875 C11.068125 2.81914063 10.51125 3.45078125 9.9375 4.1015625 C-1.12365552 17.06852522 -8.6957782 31.81022368 -13.375 48.1875 C-35.815 48.1875 -58.255 48.1875 -81.375 48.1875 C-73.76579601 29.16449002 -55.39801562 15.29812934 -37.125 7.25 C-24.71015557 2.00897157 -13.34873266 0.14090109 0 0 Z " fill="#CACFD7" transform="translate(128.375,119.8125)"/>
<path d="M0 0 C15.84 0 31.68 0 48 0 C48 15.84 48 31.68 48 48 C32.16 48 16.32 48 0 48 C0 32.16 0 16.32 0 0 Z " fill="#E6E9ED" transform="translate(328,136)"/>
<path d="M0 0 C6.50099074 3.68128391 11.87819747 8.78320492 13.9453125 16.1015625 C15.20908545 24.11749375 13.55801943 30.4620601 8.9453125 37.1015625 C4.23417819 42.52165392 -1.40366726 45.500713 -8.50390625 46.41796875 C-14.535995 46.70433131 -19.18658897 45.7526364 -24.0546875 42.1015625 C-30.68913654 35.90235214 -34.00272204 30.86864646 -34.4296875 21.7265625 C-34.25680824 15.00246918 -32.59983783 10.77492003 -27.9609375 5.90234375 C-19.7156089 -1.75206963 -10.78488932 -4.67199659 0 0 Z " fill="#020201" transform="translate(170.0546875,233.8984375)"/>
<path d="M0 0 C10.55379604 2.71840201 20.87220929 7.15153306 30.0625 13.03125 C30.5575 14.02125 30.5575 14.02125 31.0625 15.03125 C29.99773437 15.55332031 28.93296875 16.07539063 27.8359375 16.61328125 C8.67030327 26.23829385 -6.85064777 39.12608495 -18.9375 57.03125 C-21.60416667 55.03125 -24.27083333 53.03125 -26.9375 51.03125 C-27.68257812 50.54914063 -28.42765625 50.06703125 -29.1953125 49.5703125 C-30.05769531 48.80847656 -30.05769531 48.80847656 -30.9375 48.03125 C-31.42334704 33.21291539 -21.14479495 19.09009178 -11.65625 8.48046875 C-9.79976084 6.58588 -7.94137073 4.76822965 -5.9375 3.03125 C-5.28523438 2.45761719 -4.63296875 1.88398437 -3.9609375 1.29296875 C-1.9375 0.03125 -1.9375 0.03125 0 0 Z " fill="#939CA7" transform="translate(161.9375,124.96875)"/>
<path d="M0 0 C0.29899494 4.12459683 0.51534009 8.24493858 0.65917969 12.37792969 C0.7191614 13.77943788 0.8007998 15.18020618 0.90527344 16.57910156 C1.24372896 21.23120586 1.27229381 25.45655241 0 30 C-3.53852678 33.62917899 -7.52231821 35.70432838 -12 38 C-13.89842515 39.35508096 -13.89842515 39.35508096 -15.40234375 40.71484375 C-16.23894531 41.44832031 -17.07554687 42.18179688 -17.9375 42.9375 C-18.79214844 43.68902344 -19.64679688 44.44054687 -20.52734375 45.21484375 C-23.15672579 47.11314958 -24.78911663 47.75138135 -28 48 C-29.485 47.505 -29.485 47.505 -31 47 C-32.33363703 46.85596652 -33.67218046 46.75409577 -35.01171875 46.68359375 C-36.14770508 46.62075195 -36.14770508 46.62075195 -37.30664062 46.55664062 C-38.09232422 46.51732422 -38.87800781 46.47800781 -39.6875 46.4375 C-40.88342773 46.37272461 -40.88342773 46.37272461 -42.10351562 46.30664062 C-44.06881447 46.20072632 -46.03438496 46.09987449 -48 46 C-46.59814547 34.14994843 -33.14518205 21.18470243 -24.34423828 14.10205078 C-6.2267607 0 -6.2267607 0 0 0 Z " fill="#949DA8" transform="translate(200,154)"/>
<path d="M0 0 C4.0743356 0.84881992 5.54405875 2.30225596 8 5.625 C8.625 8.625 8.625 8.625 8 11.625 C5.54405875 14.94774404 4.0743356 16.40118008 0 17.25 C-4.0743356 16.40118008 -5.54405875 14.94774404 -8 11.625 C-8.625 8.625 -8.625 8.625 -8 5.625 C-5.54405875 2.30225596 -4.0743356 0.84881992 0 0 Z " fill="#F27B68" transform="translate(416,471.375)"/>
<path d="M0 0 C4.0743356 0.84881992 5.54405875 2.30225596 8 5.625 C8.625 8.625 8.625 8.625 8 11.625 C5.54405875 14.94774404 4.0743356 16.40118008 0 17.25 C-4.0743356 16.40118008 -5.54405875 14.94774404 -8 11.625 C-8.625 8.625 -8.625 8.625 -8 5.625 C-5.54405875 2.30225596 -4.0743356 0.84881992 0 0 Z " fill="#F27B68" transform="translate(288,471.375)"/>
<path d="M0 0 C4.0743356 0.84881992 5.54405875 2.30225596 8 5.625 C8.625 8.625 8.625 8.625 8 11.625 C5.54405875 14.94774404 4.0743356 16.40118008 0 17.25 C-4.0743356 16.40118008 -5.54405875 14.94774404 -8 11.625 C-8.625 8.625 -8.625 8.625 -8 5.625 C-5.54405875 2.30225596 -4.0743356 0.84881992 0 0 Z " fill="#F27B68" transform="translate(464,423.375)"/>
<path d="M0 0 C4.0743356 0.84881992 5.54405875 2.30225596 8 5.625 C8.625 8.625 8.625 8.625 8 11.625 C5.54405875 14.94774404 4.0743356 16.40118008 0 17.25 C-4.0743356 16.40118008 -5.54405875 14.94774404 -8 11.625 C-8.625 8.625 -8.625 8.625 -8 5.625 C-5.54405875 2.30225596 -4.0743356 0.84881992 0 0 Z " fill="#F27B68" transform="translate(352,423.375)"/>
<path d="M0 0 C4.0743356 0.84881992 5.54405875 2.30225596 8 5.625 C8.625 8.625 8.625 8.625 8 11.625 C5.54405875 14.94774404 4.0743356 16.40118008 0 17.25 C-4.0743356 16.40118008 -5.54405875 14.94774404 -8 11.625 C-8.625 8.625 -8.625 8.625 -8 5.625 C-5.54405875 2.30225596 -4.0743356 0.84881992 0 0 Z " fill="#F27B68" transform="translate(240,423.375)"/>
<path d="M0 0 C4.0743356 0.84881992 5.54405875 2.30225596 8 5.625 C8.625 8.625 8.625 8.625 8 11.625 C5.54405875 14.94774404 4.0743356 16.40118008 0 17.25 C-4.0743356 16.40118008 -5.54405875 14.94774404 -8 11.625 C-8.625 8.625 -8.625 8.625 -8 5.625 C-5.54405875 2.30225596 -4.0743356 0.84881992 0 0 Z " fill="#98C963" transform="translate(160,247.375)"/>
<path d="M0 0 C4.0743356 0.84881992 5.54405875 2.30225596 8 5.625 C8.625 8.625 8.625 8.625 8 11.625 C5.54405875 14.94774404 4.0743356 16.40118008 0 17.25 C-4.0743356 16.40118008 -5.54405875 14.94774404 -8 11.625 C-8.625 8.625 -8.625 8.625 -8 5.625 C-5.54405875 2.30225596 -4.0743356 0.84881992 0 0 Z " fill="#0A0A0B" transform="translate(64,215.375)"/>
</svg>
